<svg width="191" height="138" viewBox="0 0 191 138" fill="none" xmlns="http://www.w3.org/2000/svg">
<path d="M81.2739 30.2131V31.5544L82.6151 31.54C85.0072 31.5143 87.5912 31.5143 90.3934 31.5143H100.683C103.485 31.5143 106.069 31.5143 108.462 31.54L109.803 31.5544V30.2131V28.7499C109.803 20.8719 103.416 14.4855 95.5383 14.4855C87.6603 14.4855 81.2739 20.8719 81.2739 28.7499V30.2131ZM115.774 30.5148V31.7484L117.004 31.8382C117.767 31.8938 118.501 31.959 119.207 32.0351C124.141 32.5669 128.123 33.6662 131.624 36.0657C132.851 36.9069 134.004 37.852 135.07 38.8905C138.109 41.8528 139.968 45.5418 141.457 50.2758C142.911 54.8969 144.092 60.7965 145.601 68.3379L145.71 68.8867C147.883 79.7475 149.568 88.1847 150.05 94.8781C150.542 101.693 149.835 107.195 146.773 111.908C145.729 113.515 144.51 115.001 143.139 116.34C139.118 120.267 133.862 122.039 127.083 122.894C120.425 123.733 111.821 123.736 100.745 123.735H90.3319C79.2558 123.736 70.6519 123.733 63.9937 122.894C57.2144 122.039 51.9587 120.267 47.9376 116.34C46.5666 115.001 45.3479 113.515 44.3037 111.908C41.2414 107.195 40.5348 101.693 41.0263 94.8781C41.509 88.1846 43.1941 79.7473 45.3664 68.8862L44.073 68.6275L45.3664 68.8862L45.4761 68.3377L44.1775 68.078L45.4761 68.3377C46.9843 60.7964 48.1659 54.8969 49.6195 50.2758C51.1086 45.5418 52.9676 41.8528 56.0071 38.8905C57.0726 37.852 58.2254 36.9069 59.4528 36.0657C62.9536 33.6662 66.9355 32.5669 71.8696 32.0351C72.5756 31.959 73.3094 31.8938 74.0724 31.8382L75.3027 31.7484V30.5148V28.7499C75.3027 17.5741 84.3625 8.5143 95.5383 8.5143C106.714 8.5143 115.774 17.5741 115.774 28.7499V30.5148ZM72.5095 37.9718C68.0994 38.4471 65.2052 39.362 62.8286 40.991C61.8833 41.6389 60.9954 42.3668 60.1747 43.1667C58.1112 45.1778 56.6465 47.8363 55.3155 52.0675C53.9648 56.3613 52.8395 61.9677 51.2824 69.7529C49.0496 80.9169 47.4359 89.0142 46.982 95.3076C46.5323 101.543 47.2693 105.512 49.3108 108.654C50.115 109.892 51.0537 111.037 52.1097 112.068C54.7904 114.687 58.538 116.188 64.7405 116.97C71.0007 117.759 79.2572 117.764 90.6424 117.764H100.434C111.819 117.764 120.076 117.759 126.336 116.97C132.539 116.188 136.286 114.687 138.967 112.068C140.023 111.037 140.962 109.892 141.766 108.654C143.807 105.512 144.544 101.543 144.095 95.3076C143.641 89.0142 142.027 80.9169 139.794 69.7529C138.237 61.9677 137.112 56.3613 135.761 52.0675C134.43 47.8363 132.965 45.1778 130.902 43.1667C130.081 42.3668 129.193 41.6389 128.248 40.991C125.871 39.362 122.977 38.4471 118.567 37.9718C114.092 37.4895 108.374 37.4855 100.434 37.4855H90.6424C82.703 37.4855 76.9848 37.4895 72.5095 37.9718ZM78.2761 83.435C79.8307 82.8855 81.5364 83.7003 82.0859 85.255C84.0459 90.8002 89.3342 94.7643 95.5394 94.7643C101.745 94.7643 107.033 90.8002 108.993 85.255C109.542 83.7003 111.248 82.8855 112.803 83.435C114.357 83.9845 115.172 85.6902 114.623 87.2448C111.846 95.1008 104.354 100.735 95.5394 100.735C86.7246 100.735 79.2328 95.1008 76.4561 87.2448C75.9066 85.6902 76.7214 83.9845 78.2761 83.435Z" fill="#151827" stroke="#FAFCFC" stroke-width="2.65385"/>
<path d="M78.276 83.4349L78.276 83.4349C79.8307 82.8854 81.5364 83.7003 82.0859 85.2549C84.0458 90.8001 89.3342 94.7642 95.5394 94.7642C101.745 94.7642 107.033 90.8001 108.993 85.2549C109.542 83.7003 111.248 82.8854 112.803 83.4349C114.357 83.9844 115.172 85.6901 114.623 87.2448C111.846 95.1007 104.354 100.735 95.5394 100.735C86.7246 100.735 79.2327 95.1007 76.456 87.2448C75.9065 85.6901 76.7214 83.9844 78.276 83.4349Z" fill="#29977E" stroke="#FAFCFC" stroke-width="2.65385"/>
<rect x="34.5" y="53.0769" width="120.75" height="30.5192" fill="#FAFCFC"/>
<path d="M3.34385 79.4231V50.2308H12.8977C20.8946 50.2308 24.8931 53.0969 24.8931 58.8292C24.8931 62.9692 22.7346 65.7646 18.4177 67.2154L25.7423 79.4231H19.8508L13.1631 68.0646C12.6323 68.1 11.8715 68.1177 10.8808 68.1177C10.3854 68.1177 9.60692 68.0823 8.54539 68.0116V79.4231H3.34385ZM12.3669 54.9016H8.54539V63.2877C9.43 63.3939 10.2792 63.4469 11.0931 63.4469C13.7823 63.4469 15.87 63.1639 17.3562 62.5977C18.8777 61.9962 19.6385 60.7754 19.6385 58.9354C19.6385 57.3431 18.9838 56.2816 17.6746 55.7508C16.4008 55.1846 14.6315 54.9016 12.3669 54.9016ZM33.3522 60.05C34.803 59.1654 36.3599 58.7231 38.023 58.7231C41.1014 58.7231 43.4545 59.6785 45.0822 61.5892C46.7453 63.4646 47.5768 66.0477 47.5768 69.3385V71.3023H33.7238C33.8653 73.0362 34.4668 74.2392 35.5284 74.9116C36.5899 75.5839 38.0938 75.92 40.0399 75.92C42.0922 75.92 43.9676 75.7077 45.6661 75.2831L46.5684 78.7331C44.2684 79.5469 41.8622 79.9539 39.3499 79.9539C35.8468 79.9539 33.1753 78.9808 31.3353 77.0346C29.4953 75.0885 28.5753 72.5231 28.5753 69.3385C28.5753 67.2154 29.0176 65.3577 29.9022 63.7654C30.7868 62.1377 31.9368 60.8992 33.3522 60.05ZM41.3138 64.0308C40.4999 63.1462 39.4384 62.7039 38.1291 62.7039C37.0676 62.7039 36.0945 63.1462 35.2099 64.0308C34.3607 64.9154 33.9007 66.1539 33.8299 67.7462H42.5345C42.5345 66.1185 42.1276 64.88 41.3138 64.0308ZM51.5908 59.0416H55.2L55.8369 60.5277C58.2431 59.36 60.5962 58.7762 62.8962 58.7762C65.0546 58.7762 66.6646 59.2539 67.7262 60.2092C68.8231 61.1646 69.5131 62.2792 69.7962 63.5531C70.1146 64.8269 70.2738 66.26 70.2738 67.8523V79.4231H65.2315V67.2154C65.2315 66.1539 64.9662 65.1985 64.4354 64.3492C63.9046 63.5 62.9492 63.0754 61.5692 63.0754C60.3308 63.0754 58.6854 63.4469 56.6331 64.19V79.4231H51.5908V59.0416ZM85.0458 75.7608C86.072 75.7608 87.3812 75.5485 88.9735 75.1239L89.6635 78.7331C88.425 79.0869 87.3635 79.37 86.4789 79.5823C85.6297 79.7946 84.7804 79.9008 83.9312 79.9008C80.9943 79.9008 79.0304 79.2816 78.0397 78.0431C77.0843 76.8046 76.6066 75.0885 76.6066 72.8946V63.0223H73.2097V59.0416H76.6066V53.2031H81.702V59.0416H88.7612V63.0223H81.702V72.7885C81.702 74.77 82.8166 75.7608 85.0458 75.7608ZM93.1682 79.4231V50.2308H98.2636V59.5723C99.5375 59.0062 101.147 58.7231 103.094 58.7231C104.721 58.7231 106.278 59.0769 107.764 59.7846C109.286 60.4923 110.542 61.6423 111.533 63.2346C112.524 64.7916 113.019 66.8085 113.019 69.2854C113.019 72.5762 112.099 75.1769 110.259 77.0877C108.454 78.9631 105.907 79.9008 102.616 79.9008C100.811 79.9008 99.0067 79.37 97.2021 78.3085L96.7775 79.4231H93.1682ZM107.817 69.5508C107.817 64.9862 105.854 62.7039 101.926 62.7039C100.546 62.7039 99.3252 62.9339 98.2636 63.3939V74.9116C99.2544 75.5839 100.422 75.92 101.767 75.92C103.571 75.92 105.022 75.4246 106.119 74.4339C107.251 73.4077 107.817 71.78 107.817 69.5508ZM122.893 75.1239C123.247 75.6546 123.866 75.92 124.751 75.92C125.458 75.92 126.272 75.7962 127.192 75.5485V78.8923C125.741 79.5646 124.22 79.9008 122.628 79.9008C119.16 79.9008 117.426 77.99 117.426 74.1685V50.2308H122.415V72.6823C122.415 73.7439 122.575 74.5577 122.893 75.1239ZM133.867 60.05C135.317 59.1654 136.874 58.7231 138.537 58.7231C141.616 58.7231 143.969 59.6785 145.597 61.5892C147.26 63.4646 148.091 66.0477 148.091 69.3385V71.3023H134.238C134.38 73.0362 134.981 74.2392 136.043 74.9116C137.104 75.5839 138.608 75.92 140.554 75.92C142.607 75.92 144.482 75.7077 146.18 75.2831L147.083 78.7331C144.783 79.5469 142.377 79.9539 139.864 79.9539C136.361 79.9539 133.69 78.9808 131.85 77.0346C130.01 75.0885 129.09 72.5231 129.09 69.3385C129.09 67.2154 129.532 65.3577 130.417 63.7654C131.301 62.1377 132.451 60.8992 133.867 60.05ZM141.828 64.0308C141.014 63.1462 139.953 62.7039 138.644 62.7039C137.582 62.7039 136.609 63.1462 135.724 64.0308C134.875 64.9154 134.415 66.1539 134.344 67.7462H143.049C143.049 66.1185 142.642 64.88 141.828 64.0308ZM159.164 79.9008C156.546 79.9008 153.91 79.2816 151.256 78.0431L152.689 74.0623C153.892 74.4869 155.113 74.8408 156.351 75.1239C157.59 75.4069 158.616 75.5485 159.43 75.5485C160.916 75.5485 161.96 75.3892 162.561 75.0708C163.163 74.7523 163.464 74.2569 163.464 73.5846C163.464 73.1246 163.181 72.7531 162.614 72.47C162.048 72.1869 161.111 71.8331 159.801 71.4085C158.244 70.9485 156.935 70.4885 155.874 70.0285C154.812 69.5331 153.892 68.8254 153.114 67.9054C152.335 66.95 151.946 65.7469 151.946 64.2962C151.946 62.8808 152.53 61.6069 153.698 60.4746C154.865 59.3069 157.165 58.7231 160.598 58.7231C161.694 58.7231 162.862 58.8469 164.101 59.0946C165.374 59.3423 166.454 59.6077 167.338 59.8908L166.064 63.8185C163.871 63.1816 162.066 62.8631 160.651 62.8631C159.094 62.8631 158.05 63.0046 157.519 63.2877C156.988 63.5708 156.723 63.9777 156.723 64.5085C156.723 65.0746 157.041 65.5346 157.678 65.8885C158.351 66.2423 159.394 66.6316 160.81 67.0562C162.367 67.5162 163.641 67.9762 164.631 68.4362C165.658 68.8962 166.524 69.5508 167.232 70.4C167.975 71.2492 168.347 72.3285 168.347 73.6377C168.347 75.23 167.657 76.6808 166.277 77.99C164.932 79.2639 162.561 79.9008 159.164 79.9008ZM179.4 79.9008C176.782 79.9008 174.145 79.2816 171.492 78.0431L172.925 74.0623C174.128 74.4869 175.348 74.8408 176.587 75.1239C177.825 75.4069 178.852 75.5485 179.665 75.5485C181.152 75.5485 182.195 75.3892 182.797 75.0708C183.398 74.7523 183.699 74.2569 183.699 73.5846C183.699 73.1246 183.416 72.7531 182.85 72.47C182.284 72.1869 181.346 71.8331 180.037 71.4085C178.48 70.9485 177.171 70.4885 176.109 70.0285C175.048 69.5331 174.128 68.8254 173.349 67.9054C172.571 66.95 172.182 65.7469 172.182 64.2962C172.182 62.8808 172.765 61.6069 173.933 60.4746C175.101 59.3069 177.401 58.7231 180.833 58.7231C181.93 58.7231 183.098 58.8469 184.336 59.0946C185.61 59.3423 186.689 59.6077 187.574 59.8908L186.3 63.8185C184.106 63.1816 182.302 62.8631 180.886 62.8631C179.329 62.8631 178.285 63.0046 177.755 63.2877C177.224 63.5708 176.958 63.9777 176.958 64.5085C176.958 65.0746 177.277 65.5346 177.914 65.8885C178.586 66.2423 179.63 66.6316 181.045 67.0562C182.602 67.5162 183.876 67.9762 184.867 68.4362C185.893 68.8962 186.76 69.5508 187.468 70.4C188.211 71.2492 188.582 72.3285 188.582 73.6377C188.582 75.23 187.892 76.6808 186.512 77.99C185.168 79.2639 182.797 79.9008 179.4 79.9008Z" fill="#151827"/>
<mask id="mask0_1497_1308" style="mask-type:alpha" maskUnits="userSpaceOnUse" x="3" y="50" width="186" height="30">
<path d="M3.34385 79.4231V50.2308H12.8977C20.8946 50.2308 24.8931 53.0969 24.8931 58.8292C24.8931 62.9692 22.7346 65.7646 18.4177 67.2154L25.7423 79.4231H19.8508L13.1631 68.0646C12.6323 68.1 11.8715 68.1177 10.8808 68.1177C10.3854 68.1177 9.60692 68.0823 8.54539 68.0116V79.4231H3.34385ZM12.3669 54.9016H8.54539V63.2877C9.43 63.3939 10.2792 63.4469 11.0931 63.4469C13.7823 63.4469 15.87 63.1639 17.3562 62.5977C18.8777 61.9962 19.6385 60.7754 19.6385 58.9354C19.6385 57.3431 18.9838 56.2816 17.6746 55.7508C16.4008 55.1846 14.6315 54.9016 12.3669 54.9016ZM33.3522 60.05C34.803 59.1654 36.3599 58.7231 38.023 58.7231C41.1014 58.7231 43.4545 59.6785 45.0822 61.5892C46.7453 63.4646 47.5768 66.0477 47.5768 69.3385V71.3023H33.7238C33.8653 73.0362 34.4668 74.2392 35.5284 74.9116C36.5899 75.5839 38.0938 75.92 40.0399 75.92C42.0922 75.92 43.9676 75.7077 45.6661 75.2831L46.5684 78.7331C44.2684 79.5469 41.8622 79.9539 39.3499 79.9539C35.8468 79.9539 33.1753 78.9808 31.3353 77.0346C29.4953 75.0885 28.5753 72.5231 28.5753 69.3385C28.5753 67.2154 29.0176 65.3577 29.9022 63.7654C30.7868 62.1377 31.9368 60.8992 33.3522 60.05ZM41.3138 64.0308C40.4999 63.1462 39.4384 62.7039 38.1291 62.7039C37.0676 62.7039 36.0945 63.1462 35.2099 64.0308C34.3607 64.9154 33.9007 66.1539 33.8299 67.7462H42.5345C42.5345 66.1185 42.1276 64.88 41.3138 64.0308ZM51.5908 59.0416H55.2L55.8369 60.5277C58.2431 59.36 60.5962 58.7762 62.8962 58.7762C65.0546 58.7762 66.6646 59.2539 67.7262 60.2092C68.8231 61.1646 69.5131 62.2792 69.7962 63.5531C70.1146 64.8269 70.2738 66.26 70.2738 67.8523V79.4231H65.2315V67.2154C65.2315 66.1539 64.9662 65.1985 64.4354 64.3492C63.9046 63.5 62.9492 63.0754 61.5692 63.0754C60.3308 63.0754 58.6854 63.4469 56.6331 64.19V79.4231H51.5908V59.0416ZM85.0458 75.7608C86.072 75.7608 87.3812 75.5485 88.9735 75.1239L89.6635 78.7331C88.425 79.0869 87.3635 79.37 86.4789 79.5823C85.6297 79.7946 84.7804 79.9008 83.9312 79.9008C80.9943 79.9008 79.0304 79.2816 78.0397 78.0431C77.0843 76.8046 76.6066 75.0885 76.6066 72.8946V63.0223H73.2097V59.0416H76.6066V53.2031H81.702V59.0416H88.7612V63.0223H81.702V72.7885C81.702 74.77 82.8166 75.7608 85.0458 75.7608ZM93.1682 79.4231V50.2308H98.2636V59.5723C99.5375 59.0062 101.147 58.7231 103.094 58.7231C104.721 58.7231 106.278 59.0769 107.764 59.7846C109.286 60.4923 110.542 61.6423 111.533 63.2346C112.524 64.7916 113.019 66.8085 113.019 69.2854C113.019 72.5762 112.099 75.1769 110.259 77.0877C108.454 78.9631 105.907 79.9008 102.616 79.9008C100.811 79.9008 99.0067 79.37 97.2021 78.3085L96.7775 79.4231H93.1682ZM107.817 69.5508C107.817 64.9862 105.854 62.7039 101.926 62.7039C100.546 62.7039 99.3252 62.9339 98.2636 63.3939V74.9116C99.2544 75.5839 100.422 75.92 101.767 75.92C103.571 75.92 105.022 75.4246 106.119 74.4339C107.251 73.4077 107.817 71.78 107.817 69.5508ZM122.893 75.1239C123.247 75.6546 123.866 75.92 124.751 75.92C125.458 75.92 126.272 75.7962 127.192 75.5485V78.8923C125.741 79.5646 124.22 79.9008 122.628 79.9008C119.16 79.9008 117.426 77.99 117.426 74.1685V50.2308H122.415V72.6823C122.415 73.7439 122.575 74.5577 122.893 75.1239ZM133.867 60.05C135.317 59.1654 136.874 58.7231 138.537 58.7231C141.616 58.7231 143.969 59.6785 145.597 61.5892C147.26 63.4646 148.091 66.0477 148.091 69.3385V71.3023H134.238C134.38 73.0362 134.981 74.2392 136.043 74.9116C137.104 75.5839 138.608 75.92 140.554 75.92C142.607 75.92 144.482 75.7077 146.18 75.2831L147.083 78.7331C144.783 79.5469 142.377 79.9539 139.864 79.9539C136.361 79.9539 133.69 78.9808 131.85 77.0346C130.01 75.0885 129.09 72.5231 129.09 69.3385C129.09 67.2154 129.532 65.3577 130.417 63.7654C131.301 62.1377 132.451 60.8992 133.867 60.05ZM141.828 64.0308C141.014 63.1462 139.953 62.7039 138.644 62.7039C137.582 62.7039 136.609 63.1462 135.724 64.0308C134.875 64.9154 134.415 66.1539 134.344 67.7462H143.049C143.049 66.1185 142.642 64.88 141.828 64.0308ZM159.164 79.9008C156.546 79.9008 153.91 79.2816 151.256 78.0431L152.689 74.0623C153.892 74.4869 155.113 74.8408 156.351 75.1239C157.59 75.4069 158.616 75.5485 159.43 75.5485C160.916 75.5485 161.96 75.3892 162.561 75.0708C163.163 74.7523 163.464 74.2569 163.464 73.5846C163.464 73.1246 163.181 72.7531 162.614 72.47C162.048 72.1869 161.111 71.8331 159.801 71.4085C158.244 70.9485 156.935 70.4885 155.874 70.0285C154.812 69.5331 153.892 68.8254 153.114 67.9054C152.335 66.95 151.946 65.7469 151.946 64.2962C151.946 62.8808 152.53 61.6069 153.698 60.4746C154.865 59.3069 157.165 58.7231 160.598 58.7231C161.694 58.7231 162.862 58.8469 164.101 59.0946C165.374 59.3423 166.454 59.6077 167.338 59.8908L166.064 63.8185C163.871 63.1816 162.066 62.8631 160.651 62.8631C159.094 62.8631 158.05 63.0046 157.519 63.2877C156.988 63.5708 156.723 63.9777 156.723 64.5085C156.723 65.0746 157.041 65.5346 157.678 65.8885C158.351 66.2423 159.394 66.6316 160.81 67.0562C162.367 67.5162 163.641 67.9762 164.631 68.4362C165.658 68.8962 166.524 69.5508 167.232 70.4C167.975 71.2492 168.347 72.3285 168.347 73.6377C168.347 75.23 167.657 76.6808 166.277 77.99C164.932 79.2639 162.561 79.9008 159.164 79.9008ZM179.4 79.9008C176.782 79.9008 174.145 79.2816 171.492 78.0431L172.925 74.0623C174.128 74.4869 175.348 74.8408 176.587 75.1239C177.825 75.4069 178.852 75.5485 179.665 75.5485C181.152 75.5485 182.195 75.3892 182.797 75.0708C183.398 74.7523 183.699 74.2569 183.699 73.5846C183.699 73.1246 183.416 72.7531 182.85 72.47C182.284 72.1869 181.346 71.8331 180.037 71.4085C178.48 70.9485 177.171 70.4885 176.109 70.0285C175.048 69.5331 174.128 68.8254 173.349 67.9054C172.571 66.95 172.182 65.7469 172.182 64.2962C172.182 62.8808 172.765 61.6069 173.933 60.4746C175.101 59.3069 177.401 58.7231 180.833 58.7231C181.93 58.7231 183.098 58.8469 184.336 59.0946C185.61 59.3423 186.689 59.6077 187.574 59.8908L186.3 63.8185C184.106 63.1816 182.302 62.8631 180.886 62.8631C179.329 62.8631 178.285 63.0046 177.755 63.2877C177.224 63.5708 176.958 63.9777 176.958 64.5085C176.958 65.0746 177.277 65.5346 177.914 65.8885C178.586 66.2423 179.63 66.6316 181.045 67.0562C182.602 67.5162 183.876 67.9762 184.867 68.4362C185.893 68.8962 186.76 69.5508 187.468 70.4C188.211 71.2492 188.582 72.3285 188.582 73.6377C188.582 75.23 187.892 76.6808 186.512 77.99C185.168 79.2639 182.797 79.9008 179.4 79.9008Z" fill="#151827"/>
</mask>
<g mask="url(#mask0_1497_1308)">
<rect x="3.24304" y="78.2114" width="200.097" height="20.3967" transform="rotate(-5.63092 3.24304 78.2114)" fill="url(#paint0_linear_1497_1308)" fill-opacity="0.48"/>
</g>
<defs>
<linearGradient id="paint0_linear_1497_1308" x1="103.292" y1="78.2114" x2="103.292" y2="98.6082" gradientUnits="userSpaceOnUse">
<stop stop-color="#29977E" stop-opacity="0"/>
<stop offset="1" stop-color="#29977E"/>
</linearGradient>
</defs>
</svg>
